<?xml version="1.0" encoding="utf-8"?>
<!-- Generator: Adobe Illustrator 19.0.0, SVG Export Plug-In . SVG Version: 6.00 Build 0)  -->
<svg version="1.1" xmlns="http://www.w3.org/2000/svg" xmlns:xlink="http://www.w3.org/1999/xlink" x="0px" y="0px"
	 viewBox="0 0 64 64" enable-background="new 0 0 64 64" xml:space="preserve">
<g id="SYNCING_SHARED">
	<circle id="XMLID_3_" fill="#2C67B1" cx="32" cy="32" r="31.996"/>
	<g id="XMLID_6_">
		<defs>
			<circle id="XMLID_5_" cx="32" cy="32" r="30.045"/>
		</defs>
		<clipPath id="XMLID_22_">
			<use xlink:href="#XMLID_5_"  overflow="visible"/>
		</clipPath>
		<g id="XMLID_23_" clip-path="url(#XMLID_22_)">
			<circle id="XMLID_24_" fill="#4E8DCB" cx="32" cy="22.438" r="5.938"/>
			<path id="XMLID_25_" fill="#4E8DCB" d="M36.875,29.417H27.75c-2.475,0-4.5,2.025-4.5,4.5v30.5c0,2.475,2.025,4.5,4.5,4.5h9.125
				c2.475,0,4.5-2.025,4.5-4.5v-30.5C41.375,31.442,39.35,29.417,36.875,29.417z"/>
			<circle id="XMLID_26_" fill="#4E8DCB" cx="51.941" cy="22.438" r="5.938"/>
			<path id="XMLID_27_" fill="#4E8DCB" d="M56.816,29.417h-9.125c-2.475,0-4.5,2.025-4.5,4.5v30.5c0,2.475,2.025,4.5,4.5,4.5h9.125
				c2.475,0,4.5-2.025,4.5-4.5v-30.5C61.316,31.442,59.291,29.417,56.816,29.417z"/>
			<circle id="XMLID_28_" fill="#4E8DCB" cx="12.101" cy="22.438" r="5.938"/>
			<path id="XMLID_29_" fill="#4E8DCB" d="M16.976,29.417H7.851c-2.475,0-4.5,2.025-4.5,4.5v30.5c0,2.475,2.025,4.5,4.5,4.5h9.125
				c2.475,0,4.5-2.025,4.5-4.5v-30.5C21.476,31.442,19.451,29.417,16.976,29.417z"/>
		</g>
	</g>
	<g id="XMLID_9_">
		<path id="XMLID_12_" fill="#FFFFFF" stroke="#2C67B1" stroke-miterlimit="10" d="M50.196,13.856c-1.17,0-2.162,0.757-2.536,1.802
			C43.59,11.75,38.071,9.34,31.983,9.34c-8.283,0-15.525,4.447-19.478,11.081l0.001,0c-0.476,0.683-0.76,1.509-0.76,2.404
			c0,2.327,1.887,4.214,4.214,4.214c1.685,0,3.128-0.996,3.802-2.425l0.007,0.004c2.492-4.148,7.022-6.933,12.213-6.933
			c3.348,0,6.42,1.16,8.851,3.093c-0.792,0.473-1.33,1.329-1.33,2.313c0,1.486,1.216,2.703,2.703,2.703h7.99
			c1.486,0,2.703-1.216,2.703-2.703v-6.534C52.898,15.072,51.682,13.856,50.196,13.856z"/>
		<path id="XMLID_14_" fill="#FFFFFF" stroke="#2C67B1" stroke-miterlimit="10" d="M48.04,36.96c-1.685,0-3.128,0.996-3.802,2.425
			l-0.007-0.004c-2.492,4.148-7.022,6.933-12.213,6.933c-3.348,0-6.42-1.16-8.851-3.093c0.792-0.473,1.33-1.329,1.33-2.313
			c0-1.486-1.216-2.703-2.703-2.703h-7.99c-1.486,0-2.703,1.216-2.703,2.703v6.534c0,1.486,1.216,2.702,2.703,2.702
			c1.17,0,2.162-0.757,2.536-1.802c4.07,3.908,9.589,6.318,15.677,6.318c8.283,0,15.525-4.447,19.478-11.081l-0.001,0
			c0.476-0.683,0.76-1.509,0.76-2.404C52.253,38.847,50.367,36.96,48.04,36.96z"/>
	</g>
</g>
</svg>
