<svg width="64" height="64" viewBox="0 0 64 64" fill="none" xmlns="http://www.w3.org/2000/svg">
<circle cx="32" cy="32" r="27.25" fill="#1D55A0" stroke="#0C3061" stroke-width="1.5"/>
<path d="M50.288 36.6469C48.5119 45.3672 40.9309 51.9202 31.8481 51.9202C22.7654 51.9202 15.1844 45.3672 13.4082 36.6469H19.0275C20.6652 42.3141 25.808 46.4507 31.8988 46.4507C37.9895 46.4507 43.1323 42.3141 44.77 36.6469H50.288Z" fill="white"/>
<path d="M50.0483 27.7719C47.9052 19.5717 40.5689 13.5306 31.8481 13.5306C23.1274 13.5306 15.791 19.5717 13.648 27.7719H19.4098C21.3697 22.696 26.2226 19.1033 31.8988 19.1033C37.5749 19.1033 42.4278 22.696 44.3877 27.7719H50.0483Z" fill="white"/>
<path d="M46.3274 11.4667L51.2889 31.3839L33.2657 23.7472L46.3274 11.4667Z" fill="white"/>
<path d="M17.6726 53.7778L12.7111 33.8606L30.7343 41.4972L17.6726 53.7778Z" fill="white"/>
</svg>
