<?xml version="1.0" encoding="utf-8"?>
<!-- Generator: Adobe Illustrator 19.0.0, SVG Export Plug-In . SVG Version: 6.00 Build 0)  -->
<svg version="1.1" xmlns="http://www.w3.org/2000/svg" xmlns:xlink="http://www.w3.org/1999/xlink" x="0px" y="0px"
	 viewBox="0 0 64 64" enable-background="new 0 0 64 64" xml:space="preserve">
<g id="ERROR_SHARED">
	<circle id="XMLID_51_" fill="#EB2329" cx="32" cy="32" r="31.996"/>
	<g id="XMLID_41_">
		<defs>
			<circle id="XMLID_42_" cx="32" cy="32" r="30.045"/>
		</defs>
		<clipPath id="XMLID_58_">
			<use xlink:href="#XMLID_42_"  overflow="visible"/>
		</clipPath>
		<g id="XMLID_43_" clip-path="url(#XMLID_58_)">
			<circle id="XMLID_50_" fill="#F48587" cx="32" cy="22.438" r="5.938"/>
			<path id="XMLID_49_" fill="#F48587" d="M36.875,29.417H27.75c-2.475,0-4.5,2.025-4.5,4.5v30.5c0,2.475,2.025,4.5,4.5,4.5h9.125
				c2.475,0,4.5-2.025,4.5-4.5v-30.5C41.375,31.442,39.35,29.417,36.875,29.417z"/>
			<circle id="XMLID_48_" fill="#F48587" cx="51.941" cy="22.438" r="5.938"/>
			<path id="XMLID_46_" fill="#F48587" d="M56.816,29.417h-9.125c-2.475,0-4.5,2.025-4.5,4.5v30.5c0,2.475,2.025,4.5,4.5,4.5h9.125
				c2.475,0,4.5-2.025,4.5-4.5v-30.5C61.316,31.442,59.291,29.417,56.816,29.417z"/>
			<circle id="XMLID_45_" fill="#F48587" cx="12.101" cy="22.438" r="5.938"/>
			<path id="XMLID_44_" fill="#F48587" d="M16.976,29.417H7.851c-2.475,0-4.5,2.025-4.5,4.5v30.5c0,2.475,2.025,4.5,4.5,4.5h9.125
				c2.475,0,4.5-2.025,4.5-4.5v-30.5C21.476,31.442,19.451,29.417,16.976,29.417z"/>
		</g>
	</g>
	<path id="XMLID_52_" fill="#FFFFFF" stroke="#EB2329" stroke-width="2" stroke-miterlimit="10" d="M42.026,31.926l5.561-5.561
		c2.757-2.757,2.757-7.269,0-10.026c-2.757-2.757-7.269-2.757-10.026,0L32,21.9l-5.561-5.561c-2.757-2.757-7.269-2.757-10.026,0
		c-2.757,2.757-2.757,7.269,0,10.026l5.561,5.561l-5.561,5.561c-2.757,2.757-2.757,7.269,0,10.026c2.757,2.757,7.269,2.757,10.026,0
		L32,41.952l5.561,5.561c2.757,2.757,7.269,2.757,10.026,0c2.757-2.757,2.757-7.269,0-10.026L42.026,31.926z"/>
</g>
</svg>
