<svg width="64" height="64" viewBox="0 0 64 64" fill="none" xmlns="http://www.w3.org/2000/svg">
<circle cx="32" cy="32" r="27.25" fill="#D14444" stroke="#9A2924" stroke-width="1.5"/>
<path d="M39.8663 17.5136C40.5511 16.8288 41.6612 16.8288 42.3459 17.5136L46.4865 21.6541C47.1712 22.3388 47.1712 23.449 46.4865 24.1337L25.1337 45.4865C24.4489 46.1712 23.3388 46.1712 22.6541 45.4865L18.5135 41.346C17.8288 40.6612 17.8288 39.5511 18.5135 38.8664L39.8663 17.5136Z" fill="white"/>
<path d="M18.5135 24.1336C17.8288 23.4489 17.8288 22.3388 18.5135 21.6541L22.6541 17.5135C23.3388 16.8288 24.4489 16.8288 25.1337 17.5135L46.4865 38.8663C47.1712 39.551 47.1712 40.6612 46.4865 41.3459L42.3459 45.4864C41.6612 46.1712 40.5511 46.1712 39.8663 45.4864L18.5135 24.1336Z" fill="white"/>
</svg>
