<svg width="64" height="64" viewBox="0 0 64 64" fill="none" xmlns="http://www.w3.org/2000/svg">
<circle cx="32" cy="32" r="27.25" fill="#5F772F" stroke="#265128" stroke-width="1.5"/>
<path d="M43.2288 18.4465C43.9244 17.7509 45.0523 17.7509 45.7479 18.4465L50.1562 22.8549C50.8519 23.5505 50.8519 24.6783 50.1562 25.3739L29.3739 46.1563C28.6783 46.8519 27.5505 46.8519 26.8549 46.1563L22.4465 41.7479C21.7509 41.0523 21.7509 39.9244 22.4465 39.2288L43.2288 18.4465Z" fill="white"/>
<path d="M18.6679 26.6335C19.3635 25.9379 20.4913 25.9379 21.187 26.6335L30.0037 35.4502C30.6993 36.1458 30.6993 37.2737 30.0037 37.9693L25.5953 42.3776C24.8997 43.0733 23.7719 43.0733 23.0763 42.3776L14.2595 33.5609C13.5639 32.8653 13.5639 31.7375 14.2595 31.0418L18.6679 26.6335Z" fill="white"/>
</svg>
